<svg width="630" height="169" version="1.1" xmlns="http://www.w3.org/2000/svg" desc="Created with imagetracer.js version 1.2.6" ><path fill="rgb(0,0,0)" stroke="rgb(0,0,0)" stroke-width="1" opacity="0" d="M 0 0 L 629.5 0 L 630 0.5 L 630 169 L 0.5 169 L 0 168.5 L 0 0 Z M 111 2 Q 85 6 70 21 L 67 23 L 50 44 L 42 62 Q 43 68 40 71 L 40 99 Q 43 101 42 108 L 49 125 L 54 131 Q 53 134 56 133 L 59 138 L 61 141 Q 78 161 110 167 L 136 167 L 145 165 Q 164 159 177 147 Q 179 148 178 145 L 180 145 L 180 143 L 183 142 Q 182 139 185 140 L 192 131 L 199 118 L 205 95 L 205 75 L 201 58 L 194 43 L 185 29 L 180 26 Q 181 23 178 24 L 178 22 L 175 20 Q 172 21 173 18 Q 161 9 144 4 L 135 2 L 111 2 Z M 226 56 L 226 113 L 238 113 L 238 91 L 259 91 L 259 113 L 272 113 L 272 57 L 272 56 L 261 56 L 259 58 L 259 78 L 238 78 L 238 56 L 226 56 Z M 278 56 L 278 94 L 279 96 L 283 98 L 311 98 L 311 101 L 289 101 L 285 113 L 320 113 L 322 112 L 324 108 L 324 56 L 311 56 L 311 86 L 290 86 L 290 56 L 278 56 Z M 362 56 L 360 57 L 357 60 L 356 65 L 356 83 L 358 89 L 362 91 L 390 91 L 390 101 L 390 101 L 356 101 L 356 113 L 357 113 L 399 113 L 402 110 L 402 83 L 396 78 L 369 78 L 369 68 L 399 68 L 402 60 L 402 56 L 362 56 Z M 414 56 L 412 57 L 409 60 L 409 113 L 421 113 L 421 113 L 421 68 L 442 68 L 442 86 L 427 86 L 424 96 L 425 98 L 451 98 L 455 92 L 455 64 L 453 59 L 450 56 L 414 56 Z M 462 56 L 460 57 L 457 61 L 457 113 L 469 113 L 469 98 L 490 98 L 490 113 L 502 113 L 502 113 L 502 60 L 498 56 L 462 56 Z M 513 56 L 511 57 L 507 64 L 507 106 L 509 111 L 512 113 L 546 113 L 546 101 L 520 101 L 520 68 L 542 68 L 546 59 L 546 56 L 513 56 Z M 558 56 L 556 57 L 552 63 L 552 107 L 553 110 L 557 113 L 590 113 L 590 101 L 565 101 L 565 91 L 576 91 L 579 83 L 579 78 L 565 78 L 565 68 L 590 68 L 590 56 L 558 56 Z " /><path fill="rgb(0,0,0)" stroke="rgb(0,0,0)" stroke-width="1" opacity="0" d="M 121.5 16 L 130.5 16 L 146.5 20 L 160.5 27 L 171 35 L 173 38.5 L 150 54 Q 151.1 56.7 148.5 56 L 132.5 73 L 114.5 73 L 113.5 74 Q 105.1 73.1 101 75 L 103 65.5 L 103 59.5 L 108 42.5 L 117 22.5 L 121.5 16 Z " /><path fill="rgb(0,0,0)" stroke="rgb(0,0,0)" stroke-width="1" opacity="0" d="M 101.5 19 Q 103.8 18.3 103 20.5 L 98 28.5 L 98 31.5 L 96 33.5 L 96 36.5 L 91 48.5 L 91 53.5 L 89 57.5 L 89 62.5 L 87 68.5 L 87 78 L 65.5 85 L 54.5 91 L 54 73.5 L 61 52.5 L 71 38 L 73 38 L 73 36 L 75 36 Q 73.9 33.3 76.5 34 Q 86 23.5 101.5 19 Z " /><path fill="rgb(0,0,0)" stroke="rgb(0,0,0)" stroke-width="1" opacity="0" d="M 181.5 50 L 189 66.5 L 191 76.5 L 191 87.5 L 188.5 86 Q 171.3 78.2 150 74.5 L 157 69 Q 155.9 66.3 158.5 67 L 164 63 Q 162.9 60.3 165.5 61 L 181.5 50 Z " /><path fill="rgb(0,0,0)" stroke="rgb(0,0,0)" stroke-width="1" opacity="0" d="M 469 68 L 490 68 L 490 86 L 469 86 L 469 68 Z " /><path fill="rgb(0,0,0)" stroke="rgb(0,0,0)" stroke-width="1" opacity="0" d="M 118.5 87 L 123 87.5 L 112 106.5 L 107 122.5 L 104.5 126 L 101 110.5 Q 102.6 98.4 100 90.5 L 101.5 89 L 117.5 88 L 118.5 87 Z " /><path fill="rgb(0,0,0)" stroke="rgb(0,0,0)" stroke-width="1" opacity="0" d="M 139.5 88 Q 168.8 90.8 189 102.5 L 182 119.5 L 173 132 Q 170.3 130.9 171 133.5 Q 160.4 144.4 144.5 150 L 131.5 153 L 115 153 L 117 142.5 L 117 136.5 L 119 132.5 L 120 125.5 L 122 123.5 L 122 119.5 L 124 117.5 L 124 114.5 L 131 100.5 L 139.5 88 Z " /><path fill="rgb(0,0,0)" stroke="rgb(0,0,0)" stroke-width="1" opacity="0" d="M 85.5 93 L 89 124.5 L 96 147.5 L 94.5 147 Q 81.3 142.3 73 132.5 Q 73.8 130.3 71.5 131 Q 60.8 120.8 57 105 L 85.5 93 Z " /><path fill="rgb(0,164,254)" stroke="rgb(0,164,254)" stroke-width="1" opacity="0.29411764705882354" d="M 110.5 2 L 118 2.5 L 110.5 3 L 110.5 2 Z " /><path fill="rgb(0,164,254)" stroke="rgb(0,164,254)" stroke-width="1" opacity="0.29411764705882354" d="M 126.5 2 L 135 2.5 L 126.5 3 L 126.5 2 Z " /><path fill="rgb(0,164,254)" stroke="rgb(0,164,254)" stroke-width="1" opacity="0.29411764705882354" d="M 105.5 3 L 109 3.5 L 105.5 4 L 105.5 3 Z " /><path fill="rgb(0,164,254)" stroke="rgb(0,164,254)" stroke-width="1" opacity="0.29411764705882354" d="M 136.5 3 L 140 3.5 L 136.5 4 L 136.5 3 Z " /><path fill="rgb(0,164,254)" stroke="rgb(0,164,254)" stroke-width="1" opacity="0.29411764705882354" d="M 101.5 4 L 104 4.5 L 101.5 5 L 101.5 4 Z " /><path fill="rgb(0,164,254)" stroke="rgb(0,164,254)" stroke-width="1" opacity="0.29411764705882354" d="M 141.5 4 L 144 4.5 L 141.5 5 L 141.5 4 Z " /><path fill="rgb(0,164,254)" stroke="rgb(0,164,254)" stroke-width="1" opacity="0.29411764705882354" d="M 97.5 5 L 100 5.5 L 92.5 8 L 92.5 7 L 97.5 5 Z " /><path fill="rgb(0,164,254)" stroke="rgb(0,164,254)" stroke-width="1" opacity="0.29411764705882354" d="M 151.5 7 L 155 8.5 L 153.5 9 L 151.5 7 Z " /><path fill="rgb(0,164,254)" stroke="rgb(0,164,254)" stroke-width="1" opacity="0.29411764705882354" d="M 89.5 8 L 91 8.5 L 80.5 14 L 81.5 12 L 89.5 8 Z " /><path fill="rgb(0,164,254)" stroke="rgb(0,164,254)" stroke-width="1" opacity="0.29411764705882354" d="M 162.5 12 L 173 18 L 172.5 20 L 162.5 13 L 162.5 12 Z " /><path fill="rgb(0,164,254)" stroke="rgb(0,164,254)" stroke-width="1" opacity="0.29411764705882354" d="M 78.5 14 L 77.5 16 L 78.5 14 Z " /><path fill="rgb(0,164,254)" stroke="rgb(0,164,254)" stroke-width="1" opacity="0.29411764705882354" d="M 121.5 15 L 129 15.5 L 121.5 16 L 120 17.5 L 117.5 22 L 118 20.5 L 121.5 15 Z " /><path fill="rgb(0,164,254)" stroke="rgb(0,164,254)" stroke-width="1" opacity="0.29411764705882354" d="M 75.5 16 L 73.5 19 L 68.5 23 L 68 21 L 75.5 16 Z " /><path fill="rgb(0,164,254)" stroke="rgb(0,164,254)" stroke-width="1" opacity="0.29411764705882354" d="M 131.5 16 L 136 16.5 L 131.5 17 L 131.5 16 Z " /><path fill="rgb(0,164,254)" stroke="rgb(0,164,254)" stroke-width="1" opacity="0.29411764705882354" d="M 137.5 17 L 140 17.5 L 137.5 18 L 137.5 17 Z " /><path fill="rgb(0,164,254)" stroke="rgb(0,164,254)" stroke-width="1" opacity="0.29411764705882354" d="M 101.5 18 Q 104.8 16.9 104 19.5 L 102.5 19 L 94.5 22 L 94.5 21 L 101.5 18 Z " /><path fill="rgb(0,164,254)" stroke="rgb(0,164,254)" stroke-width="1" opacity="0.29411764705882354" d="M 141.5 18 L 146 19.5 L 144.5 20 L 141.5 19 L 141.5 18 Z " /><path fill="rgb(0,164,254)" stroke="rgb(0,164,254)" stroke-width="1" opacity="0.29411764705882354" d="M 147.5 20 L 151 21.5 L 149.5 22 L 147.5 20 Z " /><path fill="rgb(0,164,254)" stroke="rgb(0,164,254)" stroke-width="1" opacity="0.29411764705882354" d="M 174.5 20 L 178 22 L 178 24 Q 180.7 22.9 180 25.5 L 185 29 L 187 32.5 L 174.5 20 Z " /><path fill="rgb(0,164,254)" stroke="rgb(0,164,254)" stroke-width="1" opacity="0.29411764705882354" d="M 102.5 21 L 102 22.5 L 101.5 24 L 101 22.5 L 102.5 21 Z " /><path fill="rgb(0,164,254)" stroke="rgb(0,164,254)" stroke-width="1" opacity="0.29411764705882354" d="M 91.5 22 L 93 22.5 L 88.5 25 L 89.5 23 L 91.5 22 Z " /><path fill="rgb(0,164,254)" stroke="rgb(0,164,254)" stroke-width="1" opacity="0.29411764705882354" d="M 66.5 23 L 61.5 29 L 66.5 23 Z " /><path fill="rgb(0,164,254)" stroke="rgb(0,164,254)" stroke-width="1" opacity="0.29411764705882354" d="M 156.5 24 L 160 26.5 L 158.5 26 L 156.5 24 Z " /><path fill="rgb(0,164,254)" stroke="rgb(0,164,254)" stroke-width="1" opacity="0.29411764705882354" d="M 86.5 25 L 85.5 27 L 75 34 L 75 36 L 73 36 L 73 38 Q 70.3 36.9 71 39.5 L 66 43.5 L 75.5 33 L 86.5 25 Z " /><path fill="rgb(0,164,254)" stroke="rgb(0,164,254)" stroke-width="1" opacity="0.29411764705882354" d="M 99.5 27 L 100 28.5 L 98.5 31 L 98 28.5 L 99.5 27 Z " /><path fill="rgb(0,164,254)" stroke="rgb(0,164,254)" stroke-width="1" opacity="0.29411764705882354" d="M 114.5 27 L 115 28.5 L 113 29.5 L 114.5 27 Z " /><path fill="rgb(0,164,254)" stroke="rgb(0,164,254)" stroke-width="1" opacity="0.29411764705882354" d="M 161.5 27 L 170 34.5 L 165.5 31 L 161.5 27 Z " /><path fill="rgb(0,164,254)" stroke="rgb(0,164,254)" stroke-width="1" opacity="0.29411764705882354" d="M 60.5 30 L 57 34.5 L 54.5 38 L 56 35.5 L 60.5 30 Z " /><path fill="rgb(0,164,254)" stroke="rgb(0,164,254)" stroke-width="1" opacity="0.29411764705882354" d="M 97.5 32 L 97 33.5 L 96.5 36 L 96 33.5 L 97.5 32 Z " /><path fill="rgb(0,164,254)" stroke="rgb(0,164,254)" stroke-width="1" opacity="0.29411764705882354" d="M 111.5 33 L 112 34.5 L 110.5 37 L 110 35.5 L 111.5 33 Z " /><path fill="rgb(0,164,254)" stroke="rgb(0,164,254)" stroke-width="1" opacity="0.29411764705882354" d="M 187.5 34 L 189.5 37 L 187.5 34 Z " /><path fill="rgb(0,164,254)" stroke="rgb(0,164,254)" stroke-width="1" opacity="0.29411764705882354" d="M 171.5 36 Q 176 38 172.5 40 L 164.5 45 L 166.5 42 L 173 38.5 L 171.5 36 Z " /><path fill="rgb(0,164,254)" stroke="rgb(0,164,254)" stroke-width="1" opacity="0.29411764705882354" d="M 95.5 37 L 96 38.5 L 94.5 42 L 94 39.5 L 95.5 37 Z " /><path fill="rgb(0,164,254)" stroke="rgb(0,164,254)" stroke-width="1" opacity="0.29411764705882354" d="M 190.5 38 L 191.5 40 L 190.5 38 Z " /><path fill="rgb(0,164,254)" stroke="rgb(0,164,254)" stroke-width="1" opacity="0.29411764705882354" d="M 53.5 39 L 52.5 41 L 53.5 39 Z " /><path fill="rgb(0,164,254)" stroke="rgb(0,164,254)" stroke-width="1" opacity="0.29411764705882354" d="M 192.5 41 L 195 44.5 L 193 43.5 L 192.5 41 Z " /><path fill="rgb(0,164,254)" stroke="rgb(0,164,254)" stroke-width="1" opacity="0.29411764705882354" d="M 51.5 42 L 51 43.5 L 47.5 51 L 47 49.5 L 51.5 42 Z " /><path fill="rgb(0,164,254)" stroke="rgb(0,164,254)" stroke-width="1" opacity="0.29411764705882354" d="M 107.5 43 L 108 45.5 L 106.5 48 L 106 46.5 L 107.5 43 Z " /><path fill="rgb(0,164,254)" stroke="rgb(0,164,254)" stroke-width="1" opacity="0.29411764705882354" d="M 65.5 45 L 64.5 47 L 65.5 45 Z " /><path fill="rgb(0,164,254)" stroke="rgb(0,164,254)" stroke-width="1" opacity="0.29411764705882354" d="M 162.5 45 L 160.5 48 L 156.5 51 L 159.5 47 L 162.5 45 Z " /><path fill="rgb(0,164,254)" stroke="rgb(0,164,254)" stroke-width="1" opacity="0.29411764705882354" d="M 92.5 46 L 93 48.5 L 91.5 52 L 91 48.5 L 92.5 46 Z " /><path fill="rgb(0,164,254)" stroke="rgb(0,164,254)" stroke-width="1" opacity="0.29411764705882354" d="M 181.5 49 L 184 52.5 L 182 51.5 L 181.5 50 L 169.5 58 L 171.5 55 L 181.5 49 Z " /><path fill="rgb(0,164,254)" stroke="rgb(0,164,254)" stroke-width="1" opacity="0.29411764705882354" d="M 62.5 50 L 61.5 52 L 62.5 50 Z " /><path fill="rgb(0,164,254)" stroke="rgb(0,164,254)" stroke-width="1" opacity="0.29411764705882354" d="M 197.5 50 L 199 53.5 L 198 53.5 L 197.5 50 Z " /><path fill="rgb(0,164,254)" stroke="rgb(0,164,254)" stroke-width="1" opacity="0.29411764705882354" d="M 154.5 51 L 149.5 57 L 138.5 67 L 148.5 56 L 151.5 54 L 154.5 51 Z " /><path fill="rgb(0,164,254)" stroke="rgb(0,164,254)" stroke-width="1" opacity="0.29411764705882354" d="M 46.5 52 L 46 53.5 L 45.5 56 L 45 53.5 L 46.5 52 Z " /><path fill="rgb(0,164,254)" stroke="rgb(0,164,254)" stroke-width="1" opacity="0.29411764705882354" d="M 60.5 53 L 61 54.5 L 57.5 62 L 57 60.5 L 60.5 53 Z " /><path fill="rgb(0,164,254)" stroke="rgb(0,164,254)" stroke-width="1" opacity="0.29411764705882354" d="M 104.5 53 L 105 55.5 L 104 55.5 L 104.5 53 Z " /><path fill="rgb(0,164,254)" stroke="rgb(0,164,254)" stroke-width="1" opacity="0.29411764705882354" d="M 185.5 56 L 187 59.5 L 186 59.5 L 185.5 56 Z " /><path fill="rgb(0,164,254)" stroke="rgb(0,164,254)" stroke-width="1" opacity="0.29411764705882354" d="M 226.5 56 L 238 56 L 238 78 L 259 78 L 259 57.5 L 260.5 56 L 271.5 56 L 272 56.5 L 272 112.5 L 271 112.5 L 271 57.5 L 270.5 57 L 260 57 L 260 79 L 237 79 L 237 57 L 226.5 57 L 226.5 56 Z " /><path fill="rgb(0,164,254)" stroke="rgb(0,164,254)" stroke-width="1" opacity="0.29411764705882354" d="M 278 56 L 290 56.5 L 279 57 L 279 93.5 L 280 96 L 285 97.5 L 282.5 98 L 279 95.5 L 278 93.5 L 278 56 Z " /><path fill="rgb(0,164,254)" stroke="rgb(0,164,254)" stroke-width="1" opacity="0.29411764705882354" d="M 311 56 L 323.5 56 L 324 56.5 L 324 107.5 L 323 107.5 L 323 57.5 L 322.5 57 L 312 57 L 312 87 L 290.5 87 L 290.5 86 L 311 86 L 311 56 Z " /><path fill="rgb(0,164,254)" stroke="rgb(0,164,254)" stroke-width="1" opacity="0.29411764705882354" d="M 361.5 56 L 401.5 56 L 402 59.5 L 400.5 62 L 400 60.5 L 401 57 L 361.5 57 L 361.5 56 Z " /><path fill="rgb(0,164,254)" stroke="rgb(0,164,254)" stroke-width="1" opacity="0.29411764705882354" d="M 413.5 56 L 450 56.5 L 413.5 57 L 410 59.5 L 409.5 62 L 409 59.5 L 413.5 56 Z " /><path fill="rgb(0,164,254)" stroke="rgb(0,164,254)" stroke-width="1" opacity="0.29411764705882354" d="M 461.5 56 L 498 56.5 L 461.5 57 L 458.5 59 L 459.5 57 L 461.5 56 Z " /><path fill="rgb(0,164,254)" stroke="rgb(0,164,254)" stroke-width="1" opacity="0.29411764705882354" d="M 512.5 56 L 545.5 56 L 546 58.5 L 545 58.5 L 544.5 57 L 512.5 57 L 509.5 59 L 510.5 57 L 512.5 56 Z " /><path fill="rgb(0,164,254)" stroke="rgb(0,164,254)" stroke-width="1" opacity="0.29411764705882354" d="M 557.5 56 L 590 56.5 L 557.5 57 L 557.5 56 Z " /><path fill="rgb(0,164,254)" stroke="rgb(0,164,254)" stroke-width="1" opacity="0.29411764705882354" d="M 89.5 57 L 90 60.5 L 89 60.5 L 89.5 57 Z " /><path fill="rgb(0,164,254)" stroke="rgb(0,164,254)" stroke-width="1" opacity="0.29411764705882354" d="M 359.5 57 L 358 59.5 L 357.5 61 L 357 59.5 L 359.5 57 Z " /><path fill="rgb(0,164,254)" stroke="rgb(0,164,254)" stroke-width="1" opacity="0.29411764705882354" d="M 451.5 57 L 452.5 59 L 451.5 57 Z " /><path fill="rgb(0,164,254)" stroke="rgb(0,164,254)" stroke-width="1" opacity="0.29411764705882354" d="M 499.5 57 L 502 60.5 L 501 60.5 L 499.5 57 Z " /><path fill="rgb(0,164,254)" stroke="rgb(0,164,254)" stroke-width="1" opacity="0.29411764705882354" d="M 555.5 57 L 554 59.5 L 553.5 61 L 553 59.5 L 555.5 57 Z " /><path fill="rgb(0,164,254)" stroke="rgb(0,164,254)" stroke-width="1" opacity="0.29411764705882354" d="M 167.5 58 L 165.5 61 L 167.5 58 Z " /><path fill="rgb(0,164,254)" stroke="rgb(0,164,254)" stroke-width="1" opacity="0.29411764705882354" d="M 43.5 59 L 44 61.5 L 42.5 65 L 42 61.5 L 43.5 59 Z " /><path fill="rgb(0,164,254)" stroke="rgb(0,164,254)" stroke-width="1" opacity="0.29411764705882354" d="M 102.5 61 L 103 65.5 L 102 65.5 L 102.5 61 Z " /><path fill="rgb(0,164,254)" stroke="rgb(0,164,254)" stroke-width="1" opacity="0.29411764705882354" d="M 163.5 61 L 164 63 L 157 67 Q 158.1 69.7 155.5 69 L 150.5 75 L 154 75.5 L 149 76 L 149 74.5 L 157.5 66 L 163.5 61 Z " /><path fill="rgb(0,164,254)" stroke="rgb(0,164,254)" stroke-width="1" opacity="0.29411764705882354" d="M 187.5 61 L 189 65.5 L 188 65.5 L 187.5 61 Z " /><path fill="rgb(0,164,254)" stroke="rgb(0,164,254)" stroke-width="1" opacity="0.29411764705882354" d="M 543.5 62 L 544 64.5 L 542.5 67 L 542 65.5 L 543.5 62 Z " /><path fill="rgb(0,164,254)" stroke="rgb(0,164,254)" stroke-width="1" opacity="0.29411764705882354" d="M 552.5 62 L 553 106.5 L 552 106.5 L 552.5 62 Z " /><path fill="rgb(0,164,254)" stroke="rgb(0,164,254)" stroke-width="1" opacity="0.29411764705882354" d="M 88.5 63 L 89 66.5 L 88 66.5 L 88.5 63 Z " /><path fill="rgb(0,164,254)" stroke="rgb(0,164,254)" stroke-width="1" opacity="0.29411764705882354" d="M 399.5 63 L 400 65.5 L 398.5 68 L 398 66.5 L 399.5 63 Z " /><path fill="rgb(0,164,254)" stroke="rgb(0,164,254)" stroke-width="1" opacity="0.29411764705882354" d="M 454.5 63 L 455 91.5 L 454 91.5 L 454.5 63 Z " /><path fill="rgb(0,164,254)" stroke="rgb(0,164,254)" stroke-width="1" opacity="0.29411764705882354" d="M 507.5 63 L 508 105.5 L 507 105.5 L 507.5 63 Z " /><path fill="rgb(0,164,254)" stroke="rgb(0,164,254)" stroke-width="1" opacity="0.29411764705882354" d="M 202.5 64 L 203 66.5 L 202 66.5 L 202.5 64 Z " /><path fill="rgb(0,164,254)" stroke="rgb(0,164,254)" stroke-width="1" opacity="0.29411764705882354" d="M 356.5 64 L 357 82.5 L 356 82.5 L 356.5 64 Z " /><path fill="rgb(0,164,254)" stroke="rgb(0,164,254)" stroke-width="1" opacity="0.29411764705882354" d="M 55.5 66 L 56 68.5 L 55 68.5 L 55.5 66 Z " /><path fill="rgb(0,164,254)" stroke="rgb(0,164,254)" stroke-width="1" opacity="0.29411764705882354" d="M 41.5 67 L 42 69.5 L 40.5 78 L 40 70.5 L 41.5 67 Z " /><path fill="rgb(0,164,254)" stroke="rgb(0,164,254)" stroke-width="1" opacity="0.29411764705882354" d="M 101.5 67 L 102 70.5 L 101 70.5 L 101.5 67 Z " /><path fill="rgb(0,164,254)" stroke="rgb(0,164,254)" stroke-width="1" opacity="0.29411764705882354" d="M 189.5 67 L 191 75.5 L 190 75.5 L 189.5 67 Z " /><path fill="rgb(0,164,254)" stroke="rgb(0,164,254)" stroke-width="1" opacity="0.29411764705882354" d="M 87.5 68 L 88 75.5 L 87 75.5 L 87.5 68 Z " /><path fill="rgb(0,164,254)" stroke="rgb(0,164,254)" stroke-width="1" opacity="0.29411764705882354" d="M 137.5 68 L 132.5 74 L 114 73.5 L 132.5 73 L 137.5 68 Z " /><path fill="rgb(0,164,254)" stroke="rgb(0,164,254)" stroke-width="1" opacity="0.29411764705882354" d="M 368.5 68 L 369 78 L 396 78.5 L 368 79 L 368.5 68 Z " /><path fill="rgb(0,164,254)" stroke="rgb(0,164,254)" stroke-width="1" opacity="0.29411764705882354" d="M 420.5 68 L 421 112.5 L 420 112.5 L 420.5 68 Z " /><path fill="rgb(0,164,254)" stroke="rgb(0,164,254)" stroke-width="1" opacity="0.29411764705882354" d="M 442.5 68 L 443 85.5 L 441.5 87 L 428.5 87 L 427.5 88 L 427 86 L 442 86 L 442.5 68 Z " /><path fill="rgb(0,164,254)" stroke="rgb(0,164,254)" stroke-width="1" opacity="0.29411764705882354" d="M 468.5 68 L 469 86 L 490 86 L 490 68.5 L 491 68.5 L 491 87 L 469.5 87 L 468 85.5 L 468.5 68 Z " /><path fill="rgb(0,164,254)" stroke="rgb(0,164,254)" stroke-width="1" opacity="0.29411764705882354" d="M 519.5 68 L 520 101 L 546 101 L 546 112.5 L 545 112.5 L 545 102 L 520.5 102 L 519 100.5 L 519.5 68 Z " /><path fill="rgb(0,164,254)" stroke="rgb(0,164,254)" stroke-width="1" opacity="0.29411764705882354" d="M 564.5 68 L 565 78 L 579 78.5 L 564 79 L 564.5 68 Z " /><path fill="rgb(0,164,254)" stroke="rgb(0,164,254)" stroke-width="1" opacity="0.29411764705882354" d="M 203.5 69 L 204 71.5 L 203 71.5 L 203.5 69 Z " /><path fill="rgb(0,164,254)" stroke="rgb(0,164,254)" stroke-width="1" opacity="0.29411764705882354" d="M 54.5 70 L 55 72.5 L 54 72.5 L 54.5 70 Z " /><path fill="rgb(0,164,254)" stroke="rgb(0,164,254)" stroke-width="1" opacity="0.29411764705882354" d="M 100.5 74 L 103 75.5 L 100 76 L 100.5 74 Z " /><path fill="rgb(0,164,254)" stroke="rgb(0,164,254)" stroke-width="1" opacity="0.29411764705882354" d="M 104.5 74 L 111 74.5 L 104.5 75 L 104.5 74 Z " /><path fill="rgb(0,164,254)" stroke="rgb(0,164,254)" stroke-width="1" opacity="0.29411764705882354" d="M 204.5 74 L 205 94.5 L 204 94.5 L 204.5 74 Z " /><path fill="rgb(0,164,254)" stroke="rgb(0,164,254)" stroke-width="1" opacity="0.29411764705882354" d="M 53.5 76 L 54.5 91 L 66.5 85 L 66.5 86 L 53 92 L 53.5 76 Z " /><path fill="rgb(0,164,254)" stroke="rgb(0,164,254)" stroke-width="1" opacity="0.29411764705882354" d="M 155.5 76 L 166 78.5 L 163.5 79 L 155.5 77 L 155.5 76 Z " /><path fill="rgb(0,164,254)" stroke="rgb(0,164,254)" stroke-width="1" opacity="0.29411764705882354" d="M 85.5 78 L 87 78.5 L 82.5 80 L 82.5 79 L 85.5 78 Z " /><path fill="rgb(0,164,254)" stroke="rgb(0,164,254)" stroke-width="1" opacity="0.29411764705882354" d="M 167.5 79 L 181 83.5 L 179.5 84 L 167.5 80 L 167.5 79 Z " /><path fill="rgb(0,164,254)" stroke="rgb(0,164,254)" stroke-width="1" opacity="0.29411764705882354" d="M 191.5 79 L 192 87.5 L 191 87.5 L 191.5 79 Z " /><path fill="rgb(0,164,254)" stroke="rgb(0,164,254)" stroke-width="1" opacity="0.29411764705882354" d="M 397.5 79 L 402 82.5 L 401.5 84 L 398.5 80 L 397.5 79 Z " /><path fill="rgb(0,164,254)" stroke="rgb(0,164,254)" stroke-width="1" opacity="0.29411764705882354" d="M 578.5 80 L 579 82.5 L 578 82.5 L 578.5 80 Z " /><path fill="rgb(0,164,254)" stroke="rgb(0,164,254)" stroke-width="1" opacity="0.29411764705882354" d="M 73.5 82 L 75 82.5 L 68.5 85 L 68.5 84 L 73.5 82 Z " /><path fill="rgb(0,164,254)" stroke="rgb(0,164,254)" stroke-width="1" opacity="0.29411764705882354" d="M 182.5 84 L 190 87.5 L 188.5 87 L 182.5 85 L 182.5 84 Z " /><path fill="rgb(0,164,254)" stroke="rgb(0,164,254)" stroke-width="1" opacity="0.29411764705882354" d="M 576.5 86 L 577 88.5 L 576 91 L 565 91 L 565 101 L 590 101.5 L 564 102 L 564 90 L 574.5 90 L 576.5 86 Z " /><path fill="rgb(0,164,254)" stroke="rgb(0,164,254)" stroke-width="1" opacity="0.29411764705882354" d="M 109.5 87 L 118 87.5 L 109.5 88 L 109.5 87 Z " /><path fill="rgb(0,164,254)" stroke="rgb(0,164,254)" stroke-width="1" opacity="0.29411764705882354" d="M 139.5 87 L 143 87.5 L 138 89.5 L 125.5 112 L 125 110.5 Q 130.6 97.1 139.5 87 Z " /><path fill="rgb(0,164,254)" stroke="rgb(0,164,254)" stroke-width="1" opacity="0.29411764705882354" d="M 102.5 88 L 108 88.5 L 102.5 89 L 102.5 88 Z " /><path fill="rgb(0,164,254)" stroke="rgb(0,164,254)" stroke-width="1" opacity="0.29411764705882354" d="M 144.5 88 Q 157.1 88.4 166 92.5 L 163.5 93 Q 155.8 89.2 144.5 89 L 144.5 88 Z " /><path fill="rgb(0,164,254)" stroke="rgb(0,164,254)" stroke-width="1" opacity="0.29411764705882354" d="M 358.5 88 L 361.5 90 L 391 90 L 391 100.5 L 389.5 102 L 357.5 102 L 357 102.5 L 357 112.5 L 356 112.5 L 356 101 L 389.5 101 L 390 100.5 L 390 91 L 361.5 91 L 358.5 88 Z " /><path fill="rgb(0,164,254)" stroke="rgb(0,164,254)" stroke-width="1" opacity="0.29411764705882354" d="M 100.5 89 L 100 90.5 Q 102.3 97.2 101 107.5 L 100 107.5 Q 101.3 97.2 99 90.5 L 100.5 89 Z " /><path fill="rgb(0,164,254)" stroke="rgb(0,164,254)" stroke-width="1" opacity="0.29411764705882354" d="M 426.5 89 L 427 90.5 L 425.5 94 L 425 91.5 L 426.5 89 Z " /><path fill="rgb(0,164,254)" stroke="rgb(0,164,254)" stroke-width="1" opacity="0.29411764705882354" d="M 121.5 90 L 120 92.5 L 119.5 94 L 119 92.5 L 121.5 90 Z " /><path fill="rgb(0,164,254)" stroke="rgb(0,164,254)" stroke-width="1" opacity="0.29411764705882354" d="M 238.5 90 L 260 90 L 260 112.5 L 259 112.5 L 259 91 L 238 91 L 237.5 113 L 237 91.5 L 238.5 90 Z " /><path fill="rgb(0,164,254)" stroke="rgb(0,164,254)" stroke-width="1" opacity="0.29411764705882354" d="M 40.5 91 L 42 101.5 L 41 101.5 L 40.5 91 Z " /><path fill="rgb(0,164,254)" stroke="rgb(0,164,254)" stroke-width="1" opacity="0.29411764705882354" d="M 86.5 92 L 87 98.5 L 86 98.5 L 86.5 92 Z " /><path fill="rgb(0,164,254)" stroke="rgb(0,164,254)" stroke-width="1" opacity="0.29411764705882354" d="M 82.5 93 L 85 93.5 L 80.5 95 L 80.5 94 L 82.5 93 Z " /><path fill="rgb(0,164,254)" stroke="rgb(0,164,254)" stroke-width="1" opacity="0.29411764705882354" d="M 453.5 93 L 454 94.5 Q 453.5 98.5 448.5 98 L 448.5 97 Q 452.5 97.5 453 94.5 L 453.5 93 Z " /><path fill="rgb(0,164,254)" stroke="rgb(0,164,254)" stroke-width="1" opacity="0.29411764705882354" d="M 118.5 95 L 118 96.5 L 115.5 102 L 115 100.5 L 118.5 95 Z " /><path fill="rgb(0,164,254)" stroke="rgb(0,164,254)" stroke-width="1" opacity="0.29411764705882354" d="M 173.5 95 L 182 98.5 L 180.5 99 L 173.5 96 L 173.5 95 Z " /><path fill="rgb(0,164,254)" stroke="rgb(0,164,254)" stroke-width="1" opacity="0.29411764705882354" d="M 424.5 95 L 425 97.5 L 424 97.5 L 424.5 95 Z " /><path fill="rgb(0,164,254)" stroke="rgb(0,164,254)" stroke-width="1" opacity="0.29411764705882354" d="M 74.5 96 L 76 96.5 L 72.5 98 L 72.5 97 L 74.5 96 Z " /><path fill="rgb(0,164,254)" stroke="rgb(0,164,254)" stroke-width="1" opacity="0.29411764705882354" d="M 69.5 98 L 71 98.5 L 58.5 105 L 59.5 103 L 69.5 98 Z " /><path fill="rgb(0,164,254)" stroke="rgb(0,164,254)" stroke-width="1" opacity="0.29411764705882354" d="M 203.5 98 L 204 100.5 L 203 100.5 L 203.5 98 Z " /><path fill="rgb(0,164,254)" stroke="rgb(0,164,254)" stroke-width="1" opacity="0.29411764705882354" d="M 311.5 98 L 312 102 L 289 101.5 L 311 101 L 311.5 98 Z " /><path fill="rgb(0,164,254)" stroke="rgb(0,164,254)" stroke-width="1" opacity="0.29411764705882354" d="M 468.5 98 L 469 112.5 L 468 112.5 L 468.5 98 Z " /><path fill="rgb(0,164,254)" stroke="rgb(0,164,254)" stroke-width="1" opacity="0.29411764705882354" d="M 490.5 98 L 491 112.5 L 490 112.5 L 490.5 98 Z " /><path fill="rgb(0,164,254)" stroke="rgb(0,164,254)" stroke-width="1" opacity="0.29411764705882354" d="M 183.5 99 L 189 101.5 L 187.5 102 L 183.5 100 L 183.5 99 Z " /><path fill="rgb(0,164,254)" stroke="rgb(0,164,254)" stroke-width="1" opacity="0.29411764705882354" d="M 202.5 102 L 203 105.5 L 202 105.5 L 202.5 102 Z " /><path fill="rgb(0,164,254)" stroke="rgb(0,164,254)" stroke-width="1" opacity="0.29411764705882354" d="M 114.5 103 L 114 104.5 L 112.5 108 L 112 106.5 L 114.5 103 Z " /><path fill="rgb(0,164,254)" stroke="rgb(0,164,254)" stroke-width="1" opacity="0.29411764705882354" d="M 188.5 103 L 189 105.5 L 187.5 108 L 187 106.5 L 188.5 103 Z " /><path fill="rgb(0,164,254)" stroke="rgb(0,164,254)" stroke-width="1" opacity="0.29411764705882354" d="M 288.5 103 L 289 105.5 L 288 105.5 L 288.5 103 Z " /><path fill="rgb(0,164,254)" stroke="rgb(0,164,254)" stroke-width="1" opacity="0.29411764705882354" d="M 42.5 104 L 44 109.5 L 43 109.5 L 42.5 104 Z " /><path fill="rgb(0,164,254)" stroke="rgb(0,164,254)" stroke-width="1" opacity="0.29411764705882354" d="M 87.5 106 L 88 113.5 L 87 113.5 L 87.5 106 Z " /><path fill="rgb(0,164,254)" stroke="rgb(0,164,254)" stroke-width="1" opacity="0.29411764705882354" d="M 57.5 107 L 59 111.5 L 58 111.5 L 57.5 107 Z " /><path fill="rgb(0,164,254)" stroke="rgb(0,164,254)" stroke-width="1" opacity="0.29411764705882354" d="M 401.5 107 L 402 109.5 Q 401.3 113.8 395.5 113 L 395.5 112 Q 400.3 112.8 401 109.5 L 401.5 107 Z " /><path fill="rgb(0,164,254)" stroke="rgb(0,164,254)" stroke-width="1" opacity="0.29411764705882354" d="M 111.5 109 L 112 110.5 L 110.5 113 L 110 111.5 L 111.5 109 Z " /><path fill="rgb(0,164,254)" stroke="rgb(0,164,254)" stroke-width="1" opacity="0.29411764705882354" d="M 186.5 109 L 187 110.5 L 184.5 115 L 185 113.5 L 186.5 109 Z " /><path fill="rgb(0,164,254)" stroke="rgb(0,164,254)" stroke-width="1" opacity="0.29411764705882354" d="M 286.5 109 L 287 110.5 L 286.5 113 Q 284.3 113.8 285 111.5 L 286.5 109 Z " /><path fill="rgb(0,164,254)" stroke="rgb(0,164,254)" stroke-width="1" opacity="0.29411764705882354" d="M 553.5 109 L 559 112.5 L 556.5 113 L 553.5 109 Z " /><path fill="rgb(0,164,254)" stroke="rgb(0,164,254)" stroke-width="1" opacity="0.29411764705882354" d="M 509.5 110 Q 510.8 112.8 515 112.5 L 511.5 113 L 509.5 110 Z " /><path fill="rgb(0,164,254)" stroke="rgb(0,164,254)" stroke-width="1" opacity="0.29411764705882354" d="M 101.5 111 L 102 114.5 L 101 114.5 L 101.5 111 Z " /><path fill="rgb(0,164,254)" stroke="rgb(0,164,254)" stroke-width="1" opacity="0.29411764705882354" d="M 320.5 111 L 322 111.5 L 316.5 113 L 316.5 112 L 320.5 111 Z " /><path fill="rgb(0,164,254)" stroke="rgb(0,164,254)" stroke-width="1" opacity="0.29411764705882354" d="M 45.5 113 L 47 116.5 L 45 115.5 L 45.5 113 Z " /><path fill="rgb(0,164,254)" stroke="rgb(0,164,254)" stroke-width="1" opacity="0.29411764705882354" d="M 59.5 113 L 61 115.5 L 60 115.5 L 59.5 113 Z " /><path fill="rgb(0,164,254)" stroke="rgb(0,164,254)" stroke-width="1" opacity="0.29411764705882354" d="M 199.5 113 L 200 114.5 L 197.5 119 L 198 117.5 L 199.5 113 Z " /><path fill="rgb(0,164,254)" stroke="rgb(0,164,254)" stroke-width="1" opacity="0.29411764705882354" d="M 88.5 115 L 89 117.5 L 88 117.5 L 88.5 115 Z " /><path fill="rgb(0,164,254)" stroke="rgb(0,164,254)" stroke-width="1" opacity="0.29411764705882354" d="M 123.5 115 L 124 117.5 L 122 118.5 L 123.5 115 Z " /><path fill="rgb(0,164,254)" stroke="rgb(0,164,254)" stroke-width="1" opacity="0.29411764705882354" d="M 102.5 116 L 103 120.5 L 102 120.5 L 102.5 116 Z " /><path fill="rgb(0,164,254)" stroke="rgb(0,164,254)" stroke-width="1" opacity="0.29411764705882354" d="M 183.5 116 L 184 117.5 L 182 118.5 L 183.5 116 Z " /><path fill="rgb(0,164,254)" stroke="rgb(0,164,254)" stroke-width="1" opacity="0.29411764705882354" d="M 61.5 117 L 64 120.5 L 62 119.5 L 61.5 117 Z " /><path fill="rgb(0,164,254)" stroke="rgb(0,164,254)" stroke-width="1" opacity="0.29411764705882354" d="M 47.5 118 L 52 126.5 L 49 124.5 L 47 120.5 L 47.5 118 Z " /><path fill="rgb(0,164,254)" stroke="rgb(0,164,254)" stroke-width="1" opacity="0.29411764705882354" d="M 89.5 120 L 91 127.5 L 90 127.5 L 89.5 120 Z " /><path fill="rgb(0,164,254)" stroke="rgb(0,164,254)" stroke-width="1" opacity="0.29411764705882354" d="M 121.5 120 L 122 123.5 L 120 124.5 L 121.5 120 Z " /><path fill="rgb(0,164,254)" stroke="rgb(0,164,254)" stroke-width="1" opacity="0.29411764705882354" d="M 181.5 120 L 180.5 122 L 181.5 120 Z " /><path fill="rgb(0,164,254)" stroke="rgb(0,164,254)" stroke-width="1" opacity="0.29411764705882354" d="M 64.5 122 L 65.5 124 L 64.5 122 Z " /><path fill="rgb(0,164,254)" stroke="rgb(0,164,254)" stroke-width="1" opacity="0.29411764705882354" d="M 195.5 122 L 196 123.5 L 194 124.5 L 195.5 122 Z " /><path fill="rgb(0,164,254)" stroke="rgb(0,164,254)" stroke-width="1" opacity="0.29411764705882354" d="M 106.5 123 L 107 125.5 L 106 129 Q 103 130.3 104 126.5 L 106.5 123 Z " /><path fill="rgb(0,164,254)" stroke="rgb(0,164,254)" stroke-width="1" opacity="0.29411764705882354" d="M 179.5 123 L 178.5 125 L 179.5 123 Z " /><path fill="rgb(0,164,254)" stroke="rgb(0,164,254)" stroke-width="1" opacity="0.29411764705882354" d="M 66.5 125 L 69.5 129 L 66.5 125 Z " /><path fill="rgb(0,164,254)" stroke="rgb(0,164,254)" stroke-width="1" opacity="0.29411764705882354" d="M 177.5 126 L 173.5 131 L 177.5 126 Z " /><path fill="rgb(0,164,254)" stroke="rgb(0,164,254)" stroke-width="1" opacity="0.29411764705882354" d="M 193.5 126 L 192.5 128 L 193.5 126 Z " /><path fill="rgb(0,164,254)" stroke="rgb(0,164,254)" stroke-width="1" opacity="0.29411764705882354" d="M 52.5 128 L 53.5 130 L 52.5 128 Z " /><path fill="rgb(0,164,254)" stroke="rgb(0,164,254)" stroke-width="1" opacity="0.29411764705882354" d="M 191.5 129 L 192 130.5 L 185 140 L 183 139.5 L 191.5 129 Z " /><path fill="rgb(0,164,254)" stroke="rgb(0,164,254)" stroke-width="1" opacity="0.29411764705882354" d="M 70.5 130 L 73 131 L 77.5 137 L 82 140.5 L 78.5 138 L 70.5 130 Z " /><path fill="rgb(0,164,254)" stroke="rgb(0,164,254)" stroke-width="1" opacity="0.29411764705882354" d="M 91.5 130 L 93 135.5 L 92 135.5 L 91.5 130 Z " /><path fill="rgb(0,164,254)" stroke="rgb(0,164,254)" stroke-width="1" opacity="0.29411764705882354" d="M 118.5 130 L 119 132.5 L 118 132.5 L 118.5 130 Z " /><path fill="rgb(0,164,254)" stroke="rgb(0,164,254)" stroke-width="1" opacity="0.29411764705882354" d="M 54.5 131 L 55.5 133 Q 52.7 133.7 54.5 131 Z " /><path fill="rgb(0,164,254)" stroke="rgb(0,164,254)" stroke-width="1" opacity="0.29411764705882354" d="M 171 132 L 173 132.5 L 164.5 140 L 168.5 135 L 171 133.5 L 171 132 Z " /><path fill="rgb(0,164,254)" stroke="rgb(0,164,254)" stroke-width="1" opacity="0.29411764705882354" d="M 56.5 134 L 60 138.5 L 59 138.5 L 56.5 134 Z " /><path fill="rgb(0,164,254)" stroke="rgb(0,164,254)" stroke-width="1" opacity="0.29411764705882354" d="M 116.5 138 L 117 142.5 L 116 142.5 L 116.5 138 Z " /><path fill="rgb(0,164,254)" stroke="rgb(0,164,254)" stroke-width="1" opacity="0.29411764705882354" d="M 61.5 140 Q 74.7 155.3 96 162.5 L 94.5 163 Q 73 155.4 61.5 140 Z " /><path fill="rgb(0,164,254)" stroke="rgb(0,164,254)" stroke-width="1" opacity="0.29411764705882354" d="M 94.5 140 L 96 143.5 L 94 142.5 L 94.5 140 Z " /><path fill="rgb(0,164,254)" stroke="rgb(0,164,254)" stroke-width="1" opacity="0.29411764705882354" d="M 162.5 140 L 160.5 143 L 158.5 144 L 159.5 142 L 162.5 140 Z " /><path fill="rgb(0,164,254)" stroke="rgb(0,164,254)" stroke-width="1" opacity="0.29411764705882354" d="M 83.5 141 L 84.5 143 L 83.5 141 Z " /><path fill="rgb(0,164,254)" stroke="rgb(0,164,254)" stroke-width="1" opacity="0.29411764705882354" d="M 182.5 141 L 181.5 143 L 182.5 141 Z " /><path fill="rgb(0,164,254)" stroke="rgb(0,164,254)" stroke-width="1" opacity="0.29411764705882354" d="M 86.5 143 L 95.5 148 L 96.5 146 L 98 148.5 L 95.5 149 L 87.5 145 L 86.5 143 Z " /><path fill="rgb(0,164,254)" stroke="rgb(0,164,254)" stroke-width="1" opacity="0.29411764705882354" d="M 115.5 144 L 116 147.5 L 115 147.5 L 115.5 144 Z " /><path fill="rgb(0,164,254)" stroke="rgb(0,164,254)" stroke-width="1" opacity="0.29411764705882354" d="M 156.5 144 L 155.5 146 L 150.5 148 L 150.5 147 L 156.5 144 Z " /><path fill="rgb(0,164,254)" stroke="rgb(0,164,254)" stroke-width="1" opacity="0.29411764705882354" d="M 177.5 145 L 178 147 L 169.5 153 L 171.5 150 L 177.5 145 Z " /><path fill="rgb(0,164,254)" stroke="rgb(0,164,254)" stroke-width="1" opacity="0.29411764705882354" d="M 147.5 148 L 149 148.5 L 145.5 150 L 145.5 149 L 147.5 148 Z " /><path fill="rgb(0,164,254)" stroke="rgb(0,164,254)" stroke-width="1" opacity="0.29411764705882354" d="M 141.5 150 L 144 150.5 L 138.5 152 L 138.5 151 L 141.5 150 Z " /><path fill="rgb(0,164,254)" stroke="rgb(0,164,254)" stroke-width="1" opacity="0.29411764705882354" d="M 114.5 151 L 115 153 L 131 153.5 L 115.5 154 L 114.5 151 Z " /><path fill="rgb(0,164,254)" stroke="rgb(0,164,254)" stroke-width="1" opacity="0.29411764705882354" d="M 132.5 152 L 137 152.5 L 132.5 153 L 132.5 152 Z " /><path fill="rgb(0,164,254)" stroke="rgb(0,164,254)" stroke-width="1" opacity="0.29411764705882354" d="M 167.5 153 L 166.5 155 L 167.5 153 Z " /><path fill="rgb(0,164,254)" stroke="rgb(0,164,254)" stroke-width="1" opacity="0.29411764705882354" d="M 164.5 155 L 163.5 157 L 154.5 161 L 154.5 160 L 164.5 155 Z " /><path fill="rgb(0,164,254)" stroke="rgb(0,164,254)" stroke-width="1" opacity="0.29411764705882354" d="M 151.5 161 L 153 161.5 Q 146.9 165.4 137.5 166 L 137.5 165 Q 146.1 164.6 151.5 161 Z " /><path fill="rgb(0,164,254)" stroke="rgb(0,164,254)" stroke-width="1" opacity="0.29411764705882354" d="M 97.5 163 L 103 164.5 L 100.5 165 L 97.5 164 L 97.5 163 Z " /><path fill="rgb(0,164,254)" stroke="rgb(0,164,254)" stroke-width="1" opacity="0.29411764705882354" d="M 104.5 165 L 108 165.5 L 104.5 166 L 104.5 165 Z " /><path fill="rgb(0,164,254)" stroke="rgb(0,164,254)" stroke-width="1" opacity="0.29411764705882354" d="M 109.5 166 L 117 166.5 L 109.5 167 L 109.5 166 Z " /><path fill="rgb(0,164,254)" stroke="rgb(0,164,254)" stroke-width="1" opacity="0.29411764705882354" d="M 127.5 166 L 136 166.5 L 127.5 167 L 127.5 166 Z " /><path fill="rgb(0,156,254)" stroke="rgb(0,156,254)" stroke-width="1" opacity="0.9882352941176471" d="M 118.5 2 L 135.5 3 L 155.5 9 Q 174.6 17.9 187 33.5 Q 196.9 45.6 202 62.5 L 204 72.5 L 204 97.5 Q 197.8 127.8 178.5 145 Q 168.1 155.1 153.5 161 L 136.5 166 L 117.5 167 L 116.5 166 L 103.5 165 L 91.5 161 Q 72.4 153.1 60 138.5 Q 49.8 126.7 44 110.5 L 41 98.5 L 40 78.5 L 41 77.5 L 42 65.5 L 46 53.5 Q 53.7 35.2 67.5 23 Q 77.6 13.6 91.5 8 L 104.5 4 L 117.5 3 L 118.5 2 Z M 122 15 L 119 18 L 107 44 L 102 62 L 101 74 L 100 76 L 112 74 L 133 74 L 138 68 Q 153 50 174 39 Q 158 17 122 15 Z M 102 18 Q 86 23 76 33 Q 64 43 58 58 L 53 77 L 53 92 Q 68 83 87 79 L 88 76 L 89 62 L 93 46 Q 97 31 104 20 Q 105 17 102 18 Z M 182 49 L 158 66 L 149 75 L 149 76 L 167 79 L 192 88 L 190 68 Q 187 57 182 49 Z M 123 86 L 122 87 L 103 88 L 99 91 L 101 115 L 104 126 Q 103 130 106 129 Q 111 105 123 89 L 123 86 Z M 140 87 Q 128 101 121 121 L 116 139 L 115 151 L 114 152 L 116 154 L 131 154 L 147 150 Q 160 145 170 136 L 184 118 L 189 106 L 189 101 L 163 91 L 140 87 Z M 87 92 Q 69 97 56 106 Q 61 120 70 131 Q 80 142 96 149 L 98 149 L 91 130 L 88 115 L 87 92 Z " /><path fill="rgb(0,156,254)" stroke="rgb(0,156,254)" stroke-width="1" opacity="0.9882352941176471" d="M 226 57 L 237 57 L 237 79 L 260 79 L 260 57 L 271 57 L 271 112.5 L 270.5 113 L 260 113 L 260 90 L 238.5 90 L 237 91.5 L 237 113 L 227.5 113 L 226 111.5 L 226 57 Z " /><path fill="rgb(0,156,254)" stroke="rgb(0,156,254)" stroke-width="1" opacity="0.9882352941176471" d="M 279 57 L 290 57 L 290 87 L 312 87 L 312 57 L 323 57 L 323 108.5 L 322 111 L 315.5 113 L 287.5 113 Q 284.8 111.8 287 110.5 L 289 102 L 311.5 102 L 312 98 L 285.5 98 L 280 96 L 279 93.5 L 279 57 Z " /><path fill="rgb(0,156,254)" stroke="rgb(0,156,254)" stroke-width="1" opacity="0.9882352941176471" d="M 360.5 57 L 400.5 57 L 401 59.5 L 398 68 L 368 68 L 368 79 L 396.5 79 L 401 82.5 L 402 84.5 L 402 106.5 L 398.5 112 L 394.5 113 L 357 113 L 357 102.5 L 357.5 102 L 389.5 102 L 391 100.5 L 391 90 L 361.5 90 L 358 87.5 L 357 85.5 L 357 61.5 L 360.5 57 Z " /><path fill="rgb(0,156,254)" stroke="rgb(0,156,254)" stroke-width="1" opacity="0.9882352941176471" d="M 413.5 57 L 450.5 57 L 453 59.5 L 454 61.5 L 454 92.5 L 450.5 97 L 447.5 98 L 425 98 Q 424.4 91.1 428.5 87 L 441.5 87 L 443 85.5 L 443 68 L 420 68 L 420 112.5 L 419.5 113 L 410.5 113 L 409 111.5 L 409 62.5 L 411.5 58 L 413.5 57 Z " /><path fill="rgb(0,156,254)" stroke="rgb(0,156,254)" stroke-width="1" opacity="0.9882352941176471" d="M 461.5 57 L 498.5 57 L 501 59.5 L 502 61.5 L 502 113 L 491 113 L 491 98 L 468 98 L 468 113 L 458.5 113 L 457 111.5 L 457 62.5 L 459.5 58 L 461.5 57 Z M 468 68 L 468 86 L 470 87 L 491 87 L 491 68 L 468 68 Z " /><path fill="rgb(0,156,254)" stroke="rgb(0,156,254)" stroke-width="1" opacity="0.9882352941176471" d="M 512.5 57 L 544.5 57 L 545 59.5 L 542 68 L 519 68 L 519 100.5 L 520.5 102 L 545 102 L 545 113 L 515.5 113 L 511.5 112 L 509 109.5 L 508 106.5 L 508 62.5 L 510.5 58 L 512.5 57 Z " /><path fill="rgb(0,156,254)" stroke="rgb(0,156,254)" stroke-width="1" opacity="0.9882352941176471" d="M 556.5 57 L 589.5 57 L 590 57.5 L 590 68 L 564 68 L 564 79 L 579 79.5 L 574.5 90 L 564 90 L 564 102 L 590 102 L 590 113 L 559.5 113 L 553 108.5 L 553 61.5 L 556.5 57 Z " /></svg>